<svg width="212" height="31" viewBox="0 0 212 31" fill="none" xmlns="http://www.w3.org/2000/svg">
<path d="M10.2582 6.08727C9.80727 6.42545 9.58181 6.98909 9.58181 7.77818V9.1309H14.2036V13.64H9.58181V28.7454H2.81818V13.5273H0V9.01818H2.81818V7.10182C2.81818 4.96 3.49454 3.15636 4.96 1.91636C6.42545 0.676363 8.34181 0 10.5964 0C12.0618 0 13.5273 0.225455 14.9927 0.789091L14.0909 5.97454C13.0764 5.63636 12.2873 5.41091 11.8364 5.41091C11.16 5.52363 10.5964 5.74909 10.2582 6.08727Z" fill="#7900DF"/>
<path d="M26.8291 8.56728C27.9563 7.89092 29.3091 7.55273 30.7745 7.55273V13.7527C30.5491 13.7527 30.2109 13.7527 29.76 13.7527C28.1818 13.7527 26.8291 14.0909 25.8145 14.88C24.8 15.6691 24.2363 16.6836 24.1236 17.9236V28.52H17.2473V7.89092H24.1236V11.3855C24.8 10.1455 25.7018 9.24364 26.8291 8.56728Z" fill="#7900DF"/>
<path d="M48.9236 9.5818C50.5018 10.9345 51.2909 12.7382 51.2909 14.9927V28.6327H44.7527V26.04C43.4 27.7309 41.3709 28.6327 38.6654 28.6327C36.5236 28.6327 34.8327 28.0691 33.5927 26.8291C32.3527 25.7018 31.7891 24.1236 31.7891 22.2072C31.7891 20.2909 32.4654 18.7127 33.8182 17.6982C35.1709 16.5709 37.0872 16.0072 39.5672 16.0072H44.8654V15.7818C44.8654 14.7673 44.5272 14.0909 43.8509 13.5273C43.1745 12.9636 42.2727 12.7382 41.0327 12.7382C40.1309 12.7382 39.2291 12.8509 38.2145 13.1891C37.2 13.4145 36.0727 13.8654 35.0582 14.4291L33.2545 9.91998C34.9454 9.13089 36.5236 8.56725 37.9891 8.22907C39.4545 7.89089 41.0327 7.66544 42.7236 7.66544C45.2036 7.66544 47.4581 8.22907 48.9236 9.5818ZM43.4 23.3345C44.1891 22.8836 44.64 22.2072 44.8654 21.4182V19.6145H40.8072C38.8909 19.6145 37.9891 20.2909 37.9891 21.7563C37.9891 22.4327 38.2145 22.9963 38.6654 23.4472C39.1163 23.8982 39.7927 24.1236 40.6945 24.1236C41.7091 24.1236 42.6109 23.7854 43.4 23.3345Z" fill="#7900DF"/>
<path d="M86.1236 9.80725C87.4763 11.2727 88.1527 13.1891 88.1527 15.5563V28.6327H81.389V17.4727C81.389 16.3454 81.0509 15.3309 80.4872 14.6545C79.9236 13.9782 79.0218 13.64 78.0072 13.64C76.8799 13.64 75.8654 14.0909 75.189 14.9927C74.5127 15.8945 74.1745 17.0218 74.1745 18.3745V28.6327H67.4109V17.4727C67.4109 16.3454 67.0727 15.3309 66.509 14.6545C65.9454 13.9782 65.0436 13.64 64.029 13.64C62.9018 13.64 61.8872 14.0909 61.2109 14.9927C60.5345 15.8945 60.1963 17.0218 60.1963 18.3745V28.6327H53.5454V7.66544H60.1963V11.3854C60.8727 10.1454 61.7745 9.24362 62.9018 8.67998C64.029 8.00362 65.269 7.77816 66.8472 7.77816C68.5381 7.77816 69.8909 8.22907 71.1309 9.01816C72.2581 9.80725 73.1599 10.9345 73.6109 12.4C74.2872 10.8218 75.189 9.69453 76.429 8.90543C77.669 8.11634 79.1345 7.77816 80.7127 7.77816C82.9672 7.66544 84.7709 8.3418 86.1236 9.80725Z" fill="#7900DF"/>
<path d="M108.556 10.4836C110.36 12.5127 111.262 15.2182 111.262 18.6C111.262 19.1636 111.262 19.5018 111.262 19.84H97.0581C97.3963 20.9673 97.9599 21.8691 98.749 22.5454C99.5381 23.2218 100.553 23.4473 101.68 23.4473C102.582 23.4473 103.371 23.2218 104.273 22.8836C105.062 22.5454 105.851 21.9818 106.527 21.3054L110.022 24.8C109.007 26.04 107.654 26.9418 106.189 27.5054C104.724 28.1818 103.033 28.4073 101.116 28.4073C98.9745 28.4073 97.0581 27.9563 95.3672 27.0545C93.6763 26.1527 92.4363 24.9127 91.6472 23.4473C90.7454 21.8691 90.2945 20.0654 90.2945 17.9236C90.2945 15.7818 90.7454 13.9782 91.6472 12.2873C92.549 10.7091 93.789 9.46908 95.3672 8.56727C96.9454 7.66545 98.8618 7.21454 101.004 7.21454C104.273 7.55272 106.865 8.56727 108.556 10.4836ZM104.724 16.2327C104.724 14.9927 104.385 14.0909 103.709 13.3018C103.033 12.6254 102.131 12.1745 101.004 12.1745C99.989 12.1745 99.0872 12.5127 98.2981 13.1891C97.6218 13.8654 97.0581 14.88 96.8327 16.12H104.724V16.2327Z" fill="#7900DF"/>
<path d="M110.247 7.66544H117.236L121.407 21.8691L125.465 7.66544H132.116L136.174 21.8691L140.345 7.66544H147.109L139.444 28.6327H132.68L128.622 15.6691L124.676 28.6327H117.913L110.247 7.66544Z" fill="#7900DF"/>
<path d="M184.534 8.67998C185.662 8.00362 186.902 7.77816 188.367 7.77816V13.9782C188.142 13.9782 187.804 13.9782 187.353 13.9782C185.774 13.9782 184.422 14.3163 183.407 15.1054C182.393 15.8945 181.829 16.9091 181.716 18.1491V28.6327H174.953V7.66544H181.716V11.4982C182.505 10.2582 183.407 9.35634 184.534 8.67998Z" fill="#7900DF"/>
<path d="M203.924 28.6327L199.527 20.8545L197.385 22.9964V28.6327H190.509V0.112732H197.385V14.88L204.036 7.89091H211.814L204.149 15.8945L211.927 28.6327H203.924Z" fill="#7900DF"/>
<path d="M166.724 8.90546C168.753 9.80728 170.331 11.0473 171.458 12.6255C172.585 14.2036 173.149 16.0073 173.149 18.1491C173.149 20.2909 172.585 22.0945 171.458 23.6727C170.331 25.2509 168.753 26.4909 166.724 27.3927C164.694 28.2945 162.327 28.7455 159.622 28.7455C156.916 28.7455 154.549 28.2945 152.52 27.3927C150.491 26.4909 148.913 25.2509 147.785 23.6727C146.658 22.0945 146.094 20.2909 146.094 18.1491C146.094 16.12 146.658 14.2036 147.785 12.6255C148.913 11.0473 150.491 9.80728 152.52 8.90546C154.549 8.00364 156.916 7.55273 159.622 7.55273C162.327 7.66546 164.694 8.00364 166.724 8.90546Z" fill="#7900DF"/>
<path d="M149.702 26.3782C150.153 26.6036 150.491 26.8291 150.829 27.28C151.055 27.6182 151.167 28.0691 151.167 28.52C151.167 28.9709 151.055 29.4218 150.829 29.76C150.604 30.0982 150.153 30.4364 149.702 30.6618C149.251 30.8873 148.687 31 148.124 31C147.56 31 146.996 30.8873 146.545 30.6618C146.095 30.4364 145.756 30.2109 145.418 29.76C145.193 29.4218 145.08 28.9709 145.08 28.52C145.08 28.0691 145.193 27.6182 145.418 27.28C145.644 26.9418 145.982 26.6036 146.545 26.3782C146.996 26.1527 147.56 26.04 148.124 26.04C148.687 26.1527 149.251 26.2655 149.702 26.3782Z" fill="#7900DF"/>
</svg>
